<svg width="25" height="26" viewBox="0 0 25 26" fill="none" xmlns="http://www.w3.org/2000/svg">
<g clip-path="url(#clip0)">
<path d="M23.6202 25.6001C24.3821 25.6001 25 24.9823 25 24.2203V1.97979C25 1.21768 24.3821 0.600006 23.6202 0.600006H1.37979C0.617578 0.600006 0 1.21768 0 1.97979V24.2203C0 24.9823 0.617578 25.6001 1.37979 25.6001H23.6202Z" fill="#395185"/>
<path d="M14.5465 26.7146V15.1958H18.413L18.9918 10.7067H14.5465V7.84051C14.5465 6.54079 14.9075 5.65507 16.7713 5.65507L19.1485 5.65402V1.63903C18.7371 1.58431 17.3261 1.46207 15.6846 1.46207C12.2572 1.46207 9.9108 3.5541 9.9108 7.39608V10.7067H6.03442V15.1958H9.9108V26.7146H14.5465Z" fill="white"/>
</g>
<defs>
<clipPath id="clip0">
<rect width="25" height="25" fill="white" transform="translate(0 0.600006)"/>
</clipPath>
</defs>
</svg>
