<svg width="24" height="45" viewBox="0 0 24 45" fill="none" xmlns="http://www.w3.org/2000/svg">
<path d="M5.70473 32V26.2224H4.80785V28.6647H1.84096V26.2224H0.944082V32H1.84096V29.4415H4.80785V32H5.70473ZM8.73143 32.0801C9.9366 32.0801 10.7294 31.2513 10.7294 29.8939C10.7294 28.5406 9.9326 27.7118 8.73143 27.7118C7.53025 27.7118 6.73348 28.5406 6.73348 29.8939C6.73348 31.2513 7.52625 32.0801 8.73143 32.0801ZM8.73143 31.3674C8.05477 31.3674 7.61434 30.8309 7.61434 29.8939C7.61434 28.961 8.05477 28.4245 8.73143 28.4245C9.40809 28.4245 9.84852 28.961 9.84852 29.8939C9.84852 30.8309 9.41209 31.3674 8.73143 31.3674ZM11.658 32H12.5229V29.3975C12.5229 28.8569 12.8872 28.4565 13.3997 28.4565C13.8882 28.4565 14.1965 28.7648 14.1965 29.2493V32H15.0453V29.3694C15.0453 28.8369 15.4017 28.4565 15.9142 28.4565C16.4267 28.4565 16.719 28.7688 16.719 29.3134V32H17.5878V29.1052C17.5878 28.2684 17.0433 27.7158 16.2105 27.7158C15.6099 27.7158 15.1134 28.0281 14.8972 28.5406H14.8772C14.709 28.0161 14.2846 27.7158 13.7 27.7158C13.1315 27.7158 12.691 28.0281 12.5029 28.4966H12.4828V27.7879H11.658V32ZM20.4463 28.4085C21.0509 28.4085 21.4593 28.8609 21.4794 29.5056H19.3733C19.4173 28.8689 19.8418 28.4085 20.4463 28.4085ZM21.4754 30.7628C21.3592 31.1312 20.9949 31.3794 20.5024 31.3794C19.8097 31.3794 19.3693 30.8949 19.3693 30.1622V30.1102H22.3442V29.8139C22.3442 28.5366 21.6155 27.7118 20.4463 27.7118C19.2572 27.7118 18.4964 28.5927 18.4964 29.914C18.4964 31.2433 19.2452 32.0801 20.4824 32.0801C21.4473 32.0801 22.176 31.5315 22.2962 30.7628H21.4754Z" fill="#8C8787"/>
<path d="M22 9.15789L12 2" stroke="#8C8787" stroke-width="2" stroke-linecap="round" stroke-linejoin="round"/>
<path d="M2 9.15789L12 2" stroke="#8C8787" stroke-width="2" stroke-linecap="round" stroke-linejoin="round"/>
<path d="M5 19V7.36841" stroke="#8C8787" stroke-width="2" stroke-linecap="round"/>
<path d="M19 19V7.36841" stroke="#8C8787" stroke-width="2" stroke-linecap="round"/>
<path d="M5 19H19" stroke="#8C8787" stroke-width="2" stroke-linecap="round"/>
</svg>
